HIERARCHY
ROOT pelvis
{
	OFFSET 0.000000 0.712444 -0.000000
	CHANNELS 6 Xposition Yposition Zposition Xrotation Yrotation Zrotation
	JOINT spine
	{
		OFFSET 0.000000 0.000000 0.000000
		CHANNELS 6 Xposition Yposition Zposition Xrotation Yrotation Zrotation
		JOINT spine.001
		{
			OFFSET 0.000000 0.253490 0.013285
			CHANNELS 3 Xrotation Yrotation Zrotation
			JOINT neck
			{
				OFFSET 0.000000 0.251946 -0.030935
				CHANNELS 6 Xposition Yposition Zposition Xrotation Yrotation Zrotation
				JOINT face
				{
					OFFSET 0.000000 0.193254 -0.003373
					CHANNELS 6 Xposition Yposition Zposition Xrotation Yrotation Zrotation
					End Site
					{
						OFFSET 0.000000 -0.007386 0.029365
					}
				}
			}
			JOINT shoulder.L
			{
				OFFSET 0.000000 0.251946 -0.030935
				CHANNELS 6 Xposition Yposition Zposition Yrotation Xrotation Zrotation
				JOINT upper_arm.L
				{
					OFFSET 0.153480 0.000000 0.000000
					CHANNELS 6 Xposition Yposition Zposition Xrotation Yrotation Zrotation
					JOINT forearm.L
					{
						OFFSET 0.244461 0.000915 -0.000110
						CHANNELS 6 Xposition Yposition Zposition Xrotation Yrotation Zrotation
						End Site
						{
							OFFSET 0.230673 -0.001262 0.003925
						}
					}
				}
			}
			JOINT shoulder.R
			{
				OFFSET 0.000000 0.251946 -0.030935
				CHANNELS 6 Xposition Yposition Zposition Yrotation Xrotation Zrotation
				JOINT upper_arm.R
				{
					OFFSET -0.153480 0.000000 0.000000
					CHANNELS 6 Xposition Yposition Zposition Xrotation Yrotation Zrotation
					JOINT forearm.R
					{
						OFFSET -0.246364 0.000915 -0.000110
						CHANNELS 6 Xposition Yposition Zposition Xrotation Yrotation Zrotation
						End Site
						{
							OFFSET -0.233754 -0.001262 0.003979
						}
					}
				}
			}
		}
	}
	JOINT pelvis.L
	{
		OFFSET 0.000000 0.000000 0.000000
		CHANNELS 6 Xposition Yposition Zposition Yrotation Xrotation Zrotation
		End Site
		{
			OFFSET 0.102775 0.000000 0.000000
		}
	}
	JOINT pelvis.R
	{
		OFFSET 0.000000 0.000000 0.000000
		CHANNELS 6 Xposition Yposition Zposition Yrotation Xrotation Zrotation
		End Site
		{
			OFFSET -0.102775 0.000000 0.000000
		}
	}
	JOINT thigh.L
	{
		OFFSET 0.102775 0.000000 0.000000
		CHANNELS 6 Xposition Yposition Zposition Xrotation Yrotation Zrotation
		JOINT shin.L
		{
			OFFSET 0.017753 -0.338753 0.000000
			CHANNELS 6 Xposition Yposition Zposition Xrotation Yrotation Zrotation
			JOINT foot.L
			{
				OFFSET 0.015777 -0.301042 0.000000
				CHANNELS 6 Xposition Yposition Zposition Xrotation Yrotation Zrotation
				End Site
				{
					OFFSET 0.014599 -0.062506 0.148854
				}
			}
		}
	}
	JOINT thigh.R
	{
		OFFSET -0.102775 0.000000 0.000000
		CHANNELS 6 Xposition Yposition Zposition Xrotation Yrotation Zrotation
		JOINT shin.R
		{
			OFFSET -0.017866 -0.340896 0.000000
			CHANNELS 6 Xposition Yposition Zposition Xrotation Yrotation Zrotation
			JOINT foot.R
			{
				OFFSET -0.016267 -0.310402 0.000000
				CHANNELS 6 Xposition Yposition Zposition Xrotation Yrotation Zrotation
				End Site
				{
					OFFSET -0.015831 -0.067781 0.161416
				}
			}
		}
	}
}
MOTION
Frames: 6
Frame Time: 0.041667
0.060299 -0.007987 -0.012724 -0.000000 2.538802 -0.000000 -0.000000 -0.000000 -0.000000 -8.512170 0.433375 -3.402810 10.012326 3.385822 -0.416204 0.000000 0.251946 -0.030935 11.898404 -2.099523 3.086832 -0.000000 0.193254 -0.003373 3.091054 -0.000000 -0.000000 0.000000 0.251946 -0.030935 0.148932 -0.001580 1.213182 0.153480 -0.000000 0.000000 -5.568745 -6.668601 -79.705002 0.244461 0.000915 -0.000110 -2.067681 -19.761477 -12.367953 0.000000 0.251946 -0.030935 0.142411 -0.001442 1.160000 -0.153480 0.000000 -0.000000 -3.146422 3.965434 76.562001 -0.246364 0.000915 -0.000110 -2.129797 23.917511 10.191230 -0.000000 -0.000000 0.000000 -0.000097 -0.000002 -2.360157 -0.000000 0.000000 0.000000 -0.000000 -0.000000 -2.360188 0.102687 -0.004232 0.000000 0.570452 -0.011581 -8.323830 0.017753 -0.338753 0.000000 2.152740 0.075555 -1.980234 0.015777 -0.301042 0.000000 -6.654191 10.653580 5.845292 -0.102687 0.004232 -0.000000 0.296224 -0.018319 -1.077141 -0.017866 -0.340896 0.000000 6.237431 -0.184331 2.617871 -0.016267 -0.310402 0.000000 -7.803226 -9.360066 -5.453867 
0.059467 -0.011544 -0.011641 -0.000000 2.681220 -0.000000 -0.000000 -0.000000 -0.000000 -8.677231 0.456740 -3.545365 10.010033 3.056687 -0.375674 0.000000 0.251946 -0.030935 11.966006 -2.375570 3.276730 -0.000000 0.193254 -0.003373 3.040942 -0.000001 -0.000000 -0.000000 0.251946 -0.030935 0.162550 -0.001874 1.323535 0.153480 -0.000000 -0.000000 -5.662351 -6.766275 -79.830500 0.244461 0.000915 -0.000110 -1.974789 -19.430283 -12.024014 0.000000 0.251946 -0.030935 0.156016 -0.001728 1.270262 -0.153480 -0.000000 -0.000000 -3.200108 4.041425 76.460375 -0.246364 0.000915 -0.000110 -2.060603 23.427607 10.084877 0.000000 -0.000000 -0.000000 -0.000053 -0.000002 -2.799622 0.000000 0.000000 -0.000000 0.000000 -0.000000 -2.799657 0.102652 -0.005020 0.000000 0.256358 -0.004597 -8.049402 0.017753 -0.338753 0.000000 3.000389 0.094103 -2.407882 0.015777 -0.301042 0.000000 -6.526836 11.585461 6.266782 -0.102652 0.005020 -0.000000 0.313940 -0.019078 -0.954832 -0.017866 -0.340896 0.000000 6.497501 -0.205785 2.375831 -0.016267 -0.310402 0.000000 -8.521869 -8.890300 -5.364843 
0.058925 -0.013475 -0.011013 -0.000000 2.814781 -0.000000 -0.000000 -0.000000 -0.000000 -8.778209 0.472165 -3.639752 10.008472 2.799150 -0.343932 0.000000 0.251946 -0.030935 12.025028 -2.563094 3.425201 0.000000 0.193254 -0.003373 2.988427 0.000003 -0.000000 0.000000 0.251946 -0.030935 0.171413 -0.002091 1.396514 0.153480 0.000000 0.000000 -5.736635 -6.842589 -79.938157 0.244461 0.000915 -0.000110 -1.896797 -19.153724 -11.723355 0.000000 0.251946 -0.030935 0.164901 -0.001933 1.343290 -0.153480 0.000000 0.000000 -3.272309 4.142237 76.346755 -0.246364 0.000915 -0.000110 -2.020589 23.019839 10.085096 0.000000 -0.000000 0.000000 -0.000010 -0.000001 -3.017891 0.000000 0.000000 0.000000 0.000000 -0.000000 -3.017851 0.102632 -0.005411 0.000000 -0.011616 0.000181 -7.839236 0.017753 -0.338753 0.000000 3.658923 0.104517 -2.728684 0.015777 -0.301042 0.000000 -6.414427 12.206011 6.539603 -0.102632 0.005411 -0.000000 0.320827 -0.019184 -0.845032 -0.017866 -0.340896 0.000000 6.716722 -0.223198 2.197818 -0.016267 -0.310402 0.000000 -9.097951 -8.668912 -5.367987 
0.058751 -0.013868 -0.010899 -0.000000 2.921453 -0.000000 -0.000000 -0.000000 -0.000000 -8.809511 0.477706 -3.674556 10.007611 2.644003 -0.324839 -0.000000 0.251946 -0.030935 12.070676 -2.683168 3.522299 0.000000 0.193254 -0.003373 2.946093 0.000001 -0.000000 -0.000000 0.251946 -0.030935 0.175831 -0.002194 1.431925 0.153480 -0.000000 0.000000 -5.797285 -6.904353 -80.027776 0.244461 0.000915 -0.000110 -1.838545 -18.947373 -11.491856 -0.000000 0.251946 -0.030935 0.169291 -0.002032 1.378653 -0.153479 0.000000 0.000000 -3.365872 4.271867 76.221394 -0.246364 0.000915 -0.000110 -2.006916 22.697697 10.181598 0.000000 0.000000 0.000000 -0.000001 -0.000000 -3.024079 0.000000 0.000000 0.000000 -0.000000 -0.000000 -3.024049 0.102632 -0.005422 0.000000 -0.209876 0.003147 -7.721029 0.017753 -0.338753 0.000000 4.076525 0.109860 -2.913865 0.015777 -0.301042 0.000000 -6.335489 12.452646 6.639591 -0.102632 0.005422 0.000000 0.304885 -0.018020 -0.763926 -0.017866 -0.340896 0.000000 6.901691 -0.235495 2.096194 -0.016267 -0.310402 0.000000 -9.499419 -8.666410 -5.446963 
0.058798 -0.013898 -0.011018 -0.000000 2.982575 -0.000000 -0.000000 -0.000000 -0.000000 -8.807686 0.477221 -3.671326 10.007107 2.577844 -0.316727 0.000000 0.251946 -0.030935 12.103047 -2.802802 3.584428 0.000000 0.193254 -0.003373 2.923889 0.000003 0.000000 0.000000 0.251946 -0.030935 0.178051 -0.002253 1.450565 0.153480 0.000000 -0.000000 -5.858248 -6.968409 -80.100613 0.244461 0.000915 -0.000110 -1.799134 -18.797319 -11.339353 0.000000 0.251946 -0.030935 0.171500 -0.002092 1.397293 -0.153480 0.000000 -0.000000 -3.469706 4.415185 76.096606 -0.246364 0.000915 -0.000110 -1.997913 22.409996 10.287788 0.000000 -0.000000 -0.000000 -0.000018 -0.000001 -2.976194 0.000000 0.000000 -0.000000 0.000000 -0.000000 -2.976227 0.102636 -0.005336 0.000000 -0.343785 0.005007 -7.672074 0.017753 -0.338753 0.000000 4.325059 0.112938 -3.009717 0.015777 -0.301042 0.000000 -6.304436 12.498866 6.654456 -0.102636 0.005336 0.000000 0.266053 -0.015620 -0.718183 -0.017866 -0.340896 0.000000 7.075638 -0.245018 2.038498 -0.016267 -0.310402 0.000000 -9.776769 -8.683624 -5.511459 
0.058860 -0.014190 -0.011112 -0.000000 2.994159 -0.000000 -0.000000 -0.000000 -0.000000 -8.804791 0.475330 -3.657471 10.007186 2.567129 -0.315391 0.000000 0.251946 -0.030935 12.123944 -2.955404 3.631349 -0.000000 0.193254 -0.003373 2.898085 0.000003 -0.000000 0.000000 0.251946 -0.030935 0.179977 -0.002303 1.466470 0.153480 0.000000 -0.000000 -5.912680 -7.027889 -80.145699 0.244461 0.000915 -0.000110 -1.776330 -18.695862 -11.260281 0.000000 0.251946 -0.030935 0.173516 -0.002140 1.413194 -0.153480 -0.000000 -0.000000 -3.570102 4.553591 75.986066 -0.246364 0.000915 -0.000110 -1.980950 22.122943 10.352348 -0.000000 0.000000 0.000000 0.000031 0.000001 -2.965017 0.000000 0.000000 0.000000 0.000000 -0.000000 -2.964983 0.102637 -0.005316 0.000000 -0.424164 0.006116 -7.654013 0.017753 -0.338753 0.000000 4.476123 0.114723 -3.065124 0.015777 -0.301042 0.000000 -6.314511 12.521128 6.667506 -0.102637 0.005316 -0.000000 0.219993 -0.012873 -0.697785 -0.017866 -0.340896 0.000000 7.234566 -0.253415 1.992985 -0.016267 -0.310402 0.000000 -9.971542 -8.609420 -5.512089 
